HIERARCHY
ROOT Hips
{
  OFFSET -125.086 92.215 135.881
  CHANNELS 6 Xposition Yposition Zposition Zrotation Xrotation Yrotation
  JOINT LeftUpLeg
  {
    OFFSET 8.64259 1.95398 -2.38835
    CHANNELS 3 Zrotation Xrotation Yrotation
    JOINT LeftLeg
    {
      OFFSET 43.7702 0 0
      CHANNELS 3 Zrotation Xrotation Yrotation
      JOINT LeftFoot
      {
        OFFSET 40.6238 0 0
        CHANNELS 3 Zrotation Xrotation Yrotation
        JOINT LeftToeBase
        {
          OFFSET 12.7242 0 0
          CHANNELS 3 Zrotation Xrotation Yrotation
          End Site
          {
            OFFSET 0 0 0
          }
        }
      }
    }
  }
  JOINT RightUpLeg
  {
    OFFSET -8.2249 1.95398 -2.59336
    CHANNELS 3 Zrotation Xrotation Yrotation
    JOINT RightLeg
    {
      OFFSET 43.5653 0 0
      CHANNELS 3 Zrotation Xrotation Yrotation
      JOINT RightFoot
      {
        OFFSET 40.6238 0 0
        CHANNELS 3 Zrotation Xrotation Yrotation
        JOINT RightToeBase
        {
          OFFSET 12.7242 0 0
          CHANNELS 3 Zrotation Xrotation Yrotation
          End Site
          {
            OFFSET 0 0 0
          }
        }
      }
    }
  }
  JOINT Spine
  {
    OFFSET 0.165834 0.87714 6.61349
    CHANNELS 3 Zrotation Xrotation Yrotation
    JOINT Spine1
    {
      OFFSET 7.38963 1.71661e-005 0
      CHANNELS 3 Zrotation Xrotation Yrotation
      JOINT Spine2
      {
        OFFSET 11.9445 1.14441e-005 0
        CHANNELS 3 Zrotation Xrotation Yrotation
        JOINT Spine3
        {
          OFFSET 14.7254 4.19617e-005 0
          CHANNELS 3 Zrotation Xrotation Yrotation
          JOINT Spine4
          {
            OFFSET 10.9679 0 0
            CHANNELS 3 Zrotation Xrotation Yrotation
            JOINT RightShoulder
            {
              OFFSET 2.46616 -1.6653 3.69651
              CHANNELS 3 Zrotation Xrotation Yrotation
              JOINT RightArm
              {
                OFFSET 13.0012 0 0
                CHANNELS 3 Zrotation Xrotation Yrotation
                JOINT RightForeArm
                {
                  OFFSET 28.7848 1.52588e-005 0
                  CHANNELS 3 Zrotation Xrotation Yrotation
                  JOINT RightHand
                  {
                    OFFSET 26.5688 1.52588e-005 0
                    CHANNELS 3 Zrotation Xrotation Yrotation
                    End Site
                    {
                      OFFSET 0 0 0
                    }
                  }
                }
              }
            }
            JOINT LeftShoulder
            {
              OFFSET 2.38034 -1.29275 -3.7523
              CHANNELS 3 Zrotation Xrotation Yrotation
              JOINT LeftArm
              {
                OFFSET 16.3182 6.10352e-005 0
                CHANNELS 3 Zrotation Xrotation Yrotation
                JOINT LeftForeArm
                {
                  OFFSET 27.0901 0 0
                  CHANNELS 3 Zrotation Xrotation Yrotation
                  JOINT LeftHand
                  {
                    OFFSET 24.5451 1.52588e-005 0
                    CHANNELS 3 Zrotation Xrotation Yrotation
                    End Site
                    {
                      OFFSET 0 0 0
                    }
                  }
                }
              }
            }
            JOINT Neck
            {
              OFFSET 5.0226 -0.0266342 0
              CHANNELS 3 Zrotation Xrotation Yrotation
              JOINT Head
              {
                OFFSET 6.69363 2.86102e-005 0
                CHANNELS 3 Zrotation Xrotation Yrotation
                End Site
                {
                  OFFSET 0 0 0
                }
              }
            }
          }
        }
      }
    }
  }
}
MOTION
Frames:	15
Frame Time:	0.0416667
-305.139 62.979 339.666 -95.6789 -40.5391 -90.2456 -178.426 36.548 91.0144 -113.061 8.96758 -3.45642 73.854 14.1807 22.2731 19.9306 -12.7252 64.9487 -175.759 62.8252 98.6132 -101.482 -32.4785 -3.0428 53.1702 2.74164 -6.55166 154.984 19.4882 31.1121 -1.1155 5.00409 -91.2711 16.8317 -2.84988 -2.07831 5.16236 -2.93858 -1.95085 -17.3746 -2.09377 -2.83855 2.63802 -2.09377 -2.83855 64.4879 -44.6062 -141.618 29.701 26.7801 86.9337 144.57 -24.4382 -57.895 2.42995 -1.59891 -59.6293 -86.2091 -67.9959 86.4631 -19.3118 -35.1773 30.6318 178.049 63.1253 -157.648 36.9657 -6.51806 -22.2265 -77.6293 27.5871 7.74093 36.0213 50.5227 57.4758 
-305.28 62.9475 339.83 -95.6888 -40.5367 -90.2355 -178.512 36.843 91.1049 -113.074 9.24903 -3.47398 73.6628 14.2268 22.5032 18.9135 -14.0852 68.1012 -175.574 62.407 98.3649 -101.439 -32.4574 -3.01838 55.5897 1.13932 -6.77161 152.102 17.4509 30.4801 -1.11007 5.00725 -91.2586 16.8289 -2.83241 -2.05527 5.15962 -2.92011 -1.9286 -17.3775 -2.08402 -2.81134 2.63514 -2.08403 -2.81134 64.518 -44.5945 -141.578 29.8486 26.8556 86.8485 144.575 -24.4177 -57.8993 2.4253 -1.59814 -59.684 -86.3811 -67.9052 86.2391 -19.2204 -35.0515 30.4719 178.134 62.3005 -157.818 37.2191 -6.48868 -22.0248 -77.6204 27.6739 7.71502 36.3004 50.6215 57.2138 
-305.697 62.807 340.31 -95.7183 -40.5296 -90.2078 -178.76 37.6939 91.365 -113.181 10.0067 -3.52156 73.1865 14.3548 23.1103 15.8366 -19.548 79.1031 -175.107 61.277 97.7262 -101.165 -32.4608 -2.95314 61.7191 -2.94475 -7.01964 143.574 12.3757 28.6585 -1.09382 5.01419 -91.2213 16.8209 -2.78121 -1.98777 5.15157 -2.866 -1.86341 -17.386 -2.05545 -2.7316 2.62667 -2.05544 -2.7316 64.6093 -44.5646 -141.458 30.279 27.0717 86.5966 144.589 -24.3582 -57.9143 2.41135 -1.59611 -59.8428 -86.8709 -67.6405 85.5979 -18.9498 -34.6919 30.0239 178.232 60.0996 -158.158 37.8888 -6.41191 -21.5056 -77.5885 27.9267 7.63292 37.1121 50.9005 56.4506 
-306.374 62.4814 341.084 -95.7683 -40.5183 -90.1666 -179.164 39.0585 91.7903 -113.485 11.0823 -3.58992 72.5678 14.5324 23.9328 10.9679 -32.6815 99.5477 -174.594 59.7814 96.9823 -100.369 -31.4744 -2.82487 69.3738 -8.22499 -5.61454 129.929 6.32821 25.6349 -1.0674 5.02208 -91.1596 16.8076 -2.69749 -1.87793 5.13823 -2.77751 -1.75737 -17.3999 -2.00857 -2.60171 2.61272 -2.00858 -2.60172 64.7657 -44.5287 -141.259 30.9748 27.4102 86.1804 144.61 -24.2624 -57.9432 2.38776 -1.59324 -60.1002 -87.6332 -67.2098 84.5912 -18.5015 -34.1248 29.3423 178.064 57.0853 -158.369 38.8109 -6.32396 -20.8641 -77.5193 28.3367 7.48258 38.4265 51.3268 55.2102 
-307.282 61.9639 342.115 -95.8408 -40.5039 -90.1163 -179.737 40.8986 92.3965 -113.976 12.3464 -3.67145 71.823 14.6961 24.8293 4.61269 -55.3346 123.384 -174.277 58.3382 96.4382 -99.1351 -31.2068 -2.69579 76.4748 -12.5245 -4.09101 112.937 1.21204 21.5753 -1.0306 5.03304 -91.075 16.7886 -2.5816 -1.72745 5.11925 -2.65511 -1.61213 -17.4196 -1.9432 -2.4234 2.593 -1.94322 -2.4234 64.9788 -44.5028 -140.975 31.9211 27.8507 85.5986 144.637 -24.1327 -57.9892 2.35797 -1.5898 -60.4545 -88.6195 -66.6168 83.2715 -17.8732 -33.3775 28.4856 177.428 53.8982 -158.24 39.8552 -6.29557 -20.3518 -77.3914 28.8975 7.24549 40.2242 51.8608 53.5037 
-308.383 61.3076 343.361 -95.938 -40.4872 -90.061 179.497 43.157 93.2083 -114.539 13.7189 -3.76102 70.8743 14.7664 25.7082 -96.9571 -74.9604 42.0807 -174.253 57.1848 96.2314 -97.5676 -30.9923 -2.55051 82.0908 -15.5277 -2.28513 95.6727 -1.91625 17.2733 -0.983132 5.04726 -90.9681 16.7636 -2.43323 -1.53771 5.09413 -2.49855 -1.42911 -17.4455 -1.85869 -2.19789 2.56714 -1.85869 -2.19789 65.2432 -44.5049 -140.599 33.1043 28.3715 84.8476 144.67 -23.971 -58.0551 2.32226 -1.58586 -60.9063 -89.7802 -65.862 81.6908 -17.0613 -32.4797 27.5127 176.235 51.0976 -157.69 40.9662 -6.41664 -20.2073 -77.1786 29.6039 6.8976 42.4901 52.4573 51.3357 
-309.64 60.5664 344.79 -96.0626 -40.469 -90.0048 178.514 45.7558 94.2485 -115.051 15.1476 -3.85364 69.6487 14.6688 26.5123 -143.357 15.4454 9.31065 -174.509 56.3525 96.3559 -95.7867 -30.5656 -2.38934 86.1271 -17.3496 -0.314904 80.9094 -3.19256 13.7019 -0.924413 5.06545 -90.8397 16.7317 -2.25163 -1.31002 5.06214 -2.30712 -1.20962 -17.4781 -1.75387 -1.92618 2.5345 -1.75389 -1.92618 65.5561 -44.555 -140.122 34.5107 28.9492 83.9239 144.709 -23.7785 -58.1431 2.28038 -1.58162 -61.4586 -91.0665 -64.9442 79.8988 -16.0657 -31.4657 26.4813 174.461 49.0757 -156.709 42.1377 -6.76818 -20.599 -76.8498 30.45 6.4097 45.2049 53.0653 48.7135 
-311.017 59.7743 346.368 -96.2172 -40.4494 -89.9522 177.29 48.6015 95.5368 -115.417 16.5941 -3.94318 68.1174 14.3454 27.2024 47.8546 59.4364 178.466 -174.995 55.7697 96.7501 -93.8652 -29.9321 -2.22197 88.8034 -18.2546 1.64337 69.5733 -3.41514 11.2292 -0.853766 5.08695 -90.6901 16.6922 -2.03576 -1.04579 5.02248 -2.0798 -0.955153 -17.5182 -1.62739 -1.60932 2.49445 -1.62738 -1.60932 65.9142 -44.6743 -139.537 36.1239 29.5588 82.8264 144.758 -23.5558 -58.2549 2.23286 -1.57724 -62.116 -92.4322 -63.8625 77.9423 -14.8926 -30.3758 25.4466 172.104 48.0247 -155.319 43.3612 -7.39764 -21.5916 -76.3697 31.4272 5.74612 48.3349 53.6292 45.6568 
-312.483 58.9484 348.066 -96.4041 -40.4281 -89.9079 175.801 51.5929 97.0904 -115.575 18.0256 -4.02237 66.297 13.7621 27.7489 41.9631 14.0788 -170.378 -175.657 55.3453 97.347 -91.8275 -29.1182 -2.05865 90.4081 -18.5152 3.53715 61.1864 -3.21932 9.6649 -0.770425 5.11258 -90.5203 16.6443 -1.78465 -0.746687 4.97437 -1.81578 -0.667412 -17.5663 -1.47775 -1.24859 2.44635 -1.47774 -1.2486 66.3144 -44.8839 -138.834 37.9243 30.1746 81.5577 144.819 -23.3018 -58.3913 2.18056 -1.57323 -62.884 -93.8337 -62.6172 75.8648 -13.5566 -29.252 24.4576 169.181 47.9429 -153.545 44.5854 -8.30433 -23.1442 -75.7016 32.5225 4.86797 51.8245 54.0925 42.2067 
-314.005 58.0984 349.852 -96.625 -40.404 -89.8763 174.027 54.6272 98.9245 -115.49 19.4432 -4.08428 64.2294 12.893 28.1562 42.2232 -7.09625 -165.568 -176.45 55.0047 98.0909 -89.6783 -28.1574 -1.90844 91.1777 -18.3385 5.364 54.9869 -2.90461 8.71615 -0.673971 5.14257 -90.3313 16.5873 -1.49796 -0.414735 4.91719 -1.51478 -0.348392 -17.623 -1.30405 -0.845814 2.38966 -1.30406 -0.845822 66.7532 -45.2022 -138.008 39.8886 30.7706 80.1263 144.898 -23.0141 -58.5522 2.12499 -1.57031 -63.7682 -95.2297 -61.2124 73.7092 -12.08 -28.1333 23.5547 165.716 48.6962 -151.405 45.7153 -9.44291 -25.1502 -66.8643 33.2787 -0.64889 6.61435 42.4406 83.3123 
-315.554 57.2334 351.694 -96.8805 -40.3753 -89.8624 171.958 57.5998 101.042 -115.202 20.0588 -4.1007 62.1269 12.1153 27.7256 43.4062 -20.1561 -161.705 -177.333 54.6886 98.9346 -87.4139 -27.0871 -1.77906 91.2927 -17.8774 7.13239 50.3413 -2.58923 8.1555 -0.564626 5.17669 -90.1244 16.5213 -1.17681 -0.0523394 4.85087 -1.17797 -0.000501865 -17.6882 -1.10667 -0.403652 2.32447 -1.10666 -0.403654 67.2257 -45.6439 -137.061 41.9881 31.3209 78.5492 145.007 -22.6882 -58.7359 2.06887 -1.56991 -64.7732 -96.5805 -59.6597 71.5204 -10.4893 -27.0541 22.7714 161.756 50.0716 -148.914 46.6391 -10.7326 -27.4677 -32.8381 30.8062 -20.7284 -98.4058 -3.40328 23.9258 
-317.101 56.3655 353.562 -97.1701 -40.3396 -89.8715 169.61 60.4082 103.421 -114.675 20.3333 -4.07548 59.9546 11.2609 26.9148 45.0588 -29.5896 -158.152 -178.265 54.3504 99.832 -85.0266 -25.9495 -1.67658 90.8886 -17.2458 8.84681 46.787 -2.31265 7.82857 -0.444072 5.21393 -89.9016 16.4477 -0.825617 0.337599 4.77697 -0.809975 0.373599 -17.7603 -0.888909 0.0738352 2.2524 -0.888913 0.0738308 67.7207 -46.218 -136.007 44.1858 31.7989 76.8591 145.163 -22.3154 -58.9392 2.01743 -1.57501 -65.9003 -97.8454 -57.9881 69.3528 -8.80699 -26.0414 22.1391 157.4 51.8135 -146.114 47.2621 -12.068 -29.9365 -33.2879 32.0259 -22.7511 -94.7387 -7.00849 30.9788 
-318.615 55.5112 355.422 -97.4914 -40.2935 -89.9098 167.036 62.9636 106.006 -113.861 21.101 -4.02714 57.6488 9.96836 26.5033 47.0671 -36.9712 -154.673 -179.202 53.9495 100.743 -82.5002 -24.7847 -1.60611 90.0598 -16.5237 10.5017 44.0156 -2.08139 7.64025 -0.317645 5.25077 -89.665 16.3735 -0.456045 0.752616 4.7024 -0.422502 0.771955 -17.8323 -0.661176 0.580756 2.18039 -0.661145 0.580761 68.2076 -46.9285 -134.892 46.4301 32.174 75.1219 145.398 -21.8809 -59.1554 1.98048 -1.59156 -67.1436 -98.9748 -56.2668 67.292 -7.01978 -25.1085 21.6978 152.805 53.6652 -143.1 47.5391 -13.3394 -32.3997 -31.3056 32.7564 -26.1445 -95.5003 -5.20981 29.8137 
-320.068 54.691 357.243 -97.84 -40.2339 -89.9838 164.338 65.2008 108.692 -112.834 21.7209 -3.93883 55.4172 8.57065 25.9368 49.3975 -43.0078 -151.147 179.897 53.4644 101.608 -79.8216 -23.6533 -1.56803 88.8692 -15.7638 12.0827 41.8255 -1.89169 7.53316 -0.196696 5.27594 -89.4166 16.321 -0.0915238 1.19306 4.64956 -0.0389167 1.19593 -17.8817 -0.445812 1.11042 2.13096 -0.445831 1.11041 68.6077 -47.8021 -133.817 48.6248 32.4006 73.4897 145.775 -21.3579 -59.3711 1.97616 -1.63065 -68.4843 -99.907 -54.6587 65.4806 -5.00047 -24.2402 21.5327 148.207 55.3926 -140.066 47.4832 -14.4559 -34.718 -29.3884 33.3739 -29.5747 -96.1677 -3.42577 28.7079 
-321.428 53.9292 358.988 -98.2091 -40.1571 -90.1014 161.675 67.0787 111.324 -111.63 22.21 -3.81688 53.334 7.10803 25.2685 52.0594 -48.0893 -147.482 179.084 52.8616 102.397 -76.9558 -22.5849 -1.5663 87.3586 -14.9984 13.5684 40.0778 -1.73734 7.47086 -0.0925011 5.26788 -89.1543 16.3333 0.247525 1.66606 4.66129 0.320613 1.65355 -17.8654 -0.264563 1.66345 2.14725 -0.264561 1.66345 68.7988 -48.948 -132.898 50.6033 32.433 72.211 146.437 -20.6797 -59.5467 2.04172 -1.71595 -69.8782 -100.628 -53.3982 64.0382 -2.48699 -23.3801 21.7914 143.973 56.7837 -137.374 47.1537 -15.354 -36.7714 -27.83 33.952 -32.9284 -96.7186 -1.68792 27.7188 
